<svg width="28" height="32" viewBox="0 0 28 32" fill="none" xmlns="http://www.w3.org/2000/svg">
<g clip-path="url(#clip0_481_2357)">
<path d="M22.537 26.8283C22.537 25.0431 21.0462 23.5959 19.2073 23.5959H10.9564C9.76282 23.5959 8.79525 22.6566 8.79525 21.498V20.3637H17.9565C17.9565 18.5785 16.4656 17.1313 14.6267 17.1313H5.46387V23.5959C5.46387 25.3811 6.9547 26.8283 8.79368 26.8283H22.537Z" fill="#F3F3F3"/>
<path d="M22.537 5.17172C22.537 6.95687 21.0462 8.40408 19.2073 8.40408H10.9564C9.76282 8.40408 8.79522 9.34333 8.79522 10.502V11.6364H17.9564C17.9564 13.4216 16.4656 14.8687 14.6266 14.8687H5.46387V8.40408C5.46387 6.6189 6.95466 5.17172 8.79365 5.17172H22.537Z" fill="#F3F3F3"/>
</g>
<defs>
<clipPath id="clip0_481_2357">
<rect width="28" height="32" fill="white"/>
</clipPath>
</defs>
</svg>
