<svg width="24" height="24" viewBox="0 0 24 24" fill="none" xmlns="http://www.w3.org/2000/svg">
<path d="M5.423 3.03809C4.139 3.03809 3.19 4.16209 3.233 5.38009C3.273 6.55109 3.22 8.06809 2.838 9.30409C2.455 10.5441 1.808 11.3301 0.75 11.4311V12.5691C1.808 12.6701 2.455 13.4561 2.838 14.6961C3.22 15.9331 3.273 17.4491 3.232 18.6201C3.19 19.8381 4.139 20.9621 5.424 20.9621H18.578C19.862 20.9621 20.812 19.8381 20.77 18.6201C20.729 17.4491 20.782 15.9331 21.163 14.6961C21.547 13.4561 22.193 12.6701 23.25 12.5691V11.4311C22.192 11.3301 21.547 10.5441 21.163 9.30409C20.782 8.06809 20.729 6.55109 20.77 5.38009C20.812 4.16209 19.862 3.03809 18.578 3.03809H5.423ZM16.004 14.0711C16.004 15.7491 14.753 16.7671 12.676 16.7671H9.14C9.08985 16.7674 9.04013 16.7577 8.99373 16.7386C8.94733 16.7196 8.90516 16.6916 8.86965 16.6561C8.83414 16.6207 8.80599 16.5786 8.78683 16.5323C8.76766 16.4859 8.75787 16.4362 8.758 16.3861V7.61409C8.758 7.56401 8.76789 7.51444 8.78712 7.4682C8.80634 7.42197 8.83451 7.37999 8.87001 7.34468C8.9055 7.30936 8.94763 7.28141 8.99397 7.26244C9.0403 7.24346 9.08993 7.23382 9.14 7.23409H12.655C14.387 7.23409 15.524 8.17109 15.524 9.61209C15.524 10.6221 14.759 11.5281 13.785 11.6861V11.7391C15.111 11.8841 16.004 12.8031 16.004 14.0711ZM12.29 8.44209H10.274V11.2901H11.972C13.285 11.2901 14.008 10.7611 14.008 9.81609C14.008 8.93109 13.386 8.44209 12.29 8.44209ZM10.274 12.4191V15.5581H12.364C13.731 15.5581 14.454 15.0091 14.454 13.9781C14.454 12.9481 13.711 12.4191 12.276 12.4191H10.274Z" fill="#F3F3F3"/>
</svg>
