<svg width="24" height="24" viewBox="0 0 24 24" fill="none" xmlns="http://www.w3.org/2000/svg">
<path d="M13.2 18.666H20.6C20.836 18.666 21.062 18.583 21.267 18.466C21.471 18.349 21.682 18.202 21.8 18C21.918 17.797 22 17.567 22 17.333C22 17.099 21.918 16.869 21.8 16.666L16.8 8.06601C16.6909 7.87009 16.5291 7.70866 16.333 7.60001C16.1083 7.47545 15.8568 7.40685 15.6 7.40001C15.364 7.40001 15.138 7.48301 14.933 7.60001C14.7372 7.70881 14.5758 7.87023 14.467 8.06601L13.2 10.266L10.667 6.00001C10.549 5.79701 10.405 5.58301 10.2 5.46601C9.995 5.34901 9.77 5.33301 9.533 5.33301C9.297 5.33301 9.071 5.34901 8.867 5.46601C8.663 5.58301 8.451 5.79601 8.333 6.00001L2.133 16.666C2.015 16.869 2 17.099 2 17.333C2 17.567 2.015 17.797 2.133 18C2.251 18.202 2.463 18.35 2.667 18.466C2.871 18.582 3.097 18.666 3.333 18.666H8C9.85 18.666 11.195 17.836 12.133 16.266L14.4 12.333L15.6 10.266L19.267 16.533H14.4L13.2 18.666ZM7.933 16.533H4.667L9.533 8.13301L12 12.333L10.366 15.181C9.743 16.201 9.033 16.533 7.933 16.533Z" fill="#F3F3F3"/>
</svg>
