<svg width="24" height="24" viewBox="0 0 24 24" fill="none" xmlns="http://www.w3.org/2000/svg">
<g clip-path="url(#clip0_496_2386)">
<path d="M16.4065 5.67589C16.2895 5.67589 16.2115 5.69164 16.1327 5.71114V5.72314H16.1447C16.1995 5.82439 16.2895 5.90314 16.3592 5.99689C16.414 6.10264 16.4605 6.21139 16.5115 6.31714L16.5272 6.30139C16.621 6.23464 16.6682 6.12964 16.6682 5.96914C16.6292 5.92189 16.621 5.87164 16.5865 5.82814C16.5475 5.76139 16.4612 5.72689 16.4065 5.67589ZM5.76998 18.8706H4.84448C4.81665 17.3975 4.72682 15.9262 4.57523 14.4606H4.56773L3.15773 18.8706H2.45048L1.05173 14.4606H1.03973C0.931034 15.9284 0.866005 17.399 0.844727 18.8706H0.000976562C0.046688 17.0213 0.183604 15.1753 0.411227 13.3394H1.55948L2.89523 17.4021H2.90273L4.25048 13.3394H5.34398C5.58698 15.3554 5.73023 17.1991 5.77373 18.8706H5.76998ZM9.78548 14.7891C9.41048 16.8359 8.91023 18.3246 8.29748 19.2501C7.81348 19.9651 7.28473 20.3231 6.71123 20.3241C6.55973 20.3241 6.37098 20.2771 6.14498 20.1831V19.6911C6.25823 19.7069 6.38723 19.7181 6.53198 19.7181C6.80123 19.7181 7.01648 19.6401 7.18073 19.4954C7.37573 19.3154 7.47348 19.1136 7.47398 18.8901C7.47398 18.7341 7.39973 18.4214 7.24373 17.9451L6.23198 14.7891H7.14248L7.86923 17.1486C8.03348 17.6879 8.10398 18.0591 8.07248 18.2736C8.47448 17.2109 8.75198 16.0469 8.90873 14.7891H9.78548ZM22.1132 18.8706H19.4807V13.3394H20.3672V18.1911H22.1132V18.8706ZM18.793 19.0041L17.7775 18.5039C17.8675 18.4304 17.9522 18.3471 18.0317 18.2541C18.4652 17.7501 18.6805 16.9964 18.6805 16.0041C18.6805 14.1726 17.9617 13.2574 16.5242 13.2584C15.8202 13.2574 15.2707 13.4891 14.8757 13.9536C14.446 14.4614 14.227 15.2114 14.227 16.1999C14.227 17.1726 14.4182 17.8836 14.8015 18.3404C15.1532 18.7469 15.6805 18.9539 16.3877 18.9539C16.6502 18.9544 16.8912 18.9219 17.1107 18.8564L18.4352 19.6296L18.7982 19.0049L18.793 19.0041ZM15.5005 17.7614C15.274 17.4021 15.1645 16.8239 15.1645 16.0266C15.164 14.6331 15.5872 13.9366 16.4342 13.9371C16.876 13.9371 17.2037 14.1051 17.4107 14.4374C17.6335 14.8004 17.7467 15.3711 17.7467 16.1601C17.7467 17.5626 17.3207 18.2699 16.477 18.2699C16.0315 18.2699 15.7075 18.1019 15.4967 17.7696L15.5005 17.7614ZM13.8437 17.3399C13.8437 17.8086 13.672 18.1956 13.324 18.4919C12.9805 18.7926 12.523 18.9449 11.941 18.9449C11.398 18.9449 10.8782 18.7731 10.3667 18.4289L10.6052 17.9526C11.0425 18.1716 11.437 18.2811 11.797 18.2811C12.13 18.2806 12.3905 18.2076 12.5785 18.0621C12.766 17.9136 12.8792 17.7066 12.8792 17.4449C12.8792 17.1164 12.649 16.8351 12.2305 16.6011C11.8435 16.3866 11.0665 15.9449 11.0665 15.9449C10.6442 15.6366 10.4372 15.3081 10.4372 14.7651C10.4372 14.3166 10.5935 13.9559 10.906 13.6829C11.2225 13.4016 11.6245 13.2651 12.1247 13.2651C12.6224 13.2608 13.1103 13.4035 13.5272 13.6754L13.3127 14.1516C12.9778 14.0036 12.6162 13.9253 12.25 13.9214C11.965 13.9224 11.7462 13.9914 11.5937 14.1284C11.365 14.3339 11.3477 14.4366 11.3477 14.6519C11.3477 14.9804 11.5825 15.2616 12.0115 15.5031C12.406 15.7176 13.1987 16.1714 13.1987 16.1714C13.6322 16.4759 13.8475 16.8044 13.8475 17.3391L13.8437 17.3399ZM23.2232 11.4846C22.6877 11.4726 22.2737 11.5274 21.9265 11.6759C21.829 11.7149 21.6685 11.7149 21.6527 11.8401C21.7075 11.8949 21.715 11.9811 21.7622 12.0546C21.844 12.1874 21.9812 12.3674 22.1102 12.4611C22.2512 12.5706 22.3915 12.6801 22.5362 12.7739C22.798 12.9344 23.0912 13.0281 23.3485 13.1879C23.4932 13.2816 23.6417 13.4024 23.7857 13.5006C23.86 13.5516 23.9065 13.6416 24.0002 13.6724V13.6529C23.953 13.5944 23.9417 13.5081 23.8945 13.4384C23.8277 13.3716 23.7617 13.3131 23.695 13.2471C23.4995 12.9874 23.265 12.7594 22.9997 12.5714C22.7852 12.4266 22.3165 12.2234 22.2302 11.9774L22.2182 11.9616C22.363 11.9496 22.5347 11.8949 22.675 11.8559C22.9015 11.7974 23.1122 11.8086 23.347 11.7501C23.4547 11.7223 23.5615 11.691 23.6672 11.6564V11.5979C23.5465 11.4771 23.4565 11.3129 23.3312 11.1996C22.9854 10.8985 22.6171 10.6242 22.2295 10.3791C22.0187 10.2426 21.7532 10.1564 21.5305 10.0431C21.4525 10.0041 21.316 9.98464 21.2725 9.91789C21.1517 9.76939 21.0812 9.57814 20.995 9.40189C20.7989 9.02053 20.6166 8.63228 20.4482 8.23789C20.3275 7.97614 20.257 7.71814 20.1085 7.47589C19.4207 6.33889 18.6707 5.65189 17.5225 4.97614C17.2765 4.83514 16.9795 4.77664 16.6667 4.70239C16.4987 4.69489 16.3345 4.68289 16.1665 4.67539C16.057 4.62814 15.952 4.50364 15.8582 4.44064C15.4757 4.19839 14.491 3.67864 14.2135 4.36639C14.0335 4.80364 14.479 5.22964 14.6357 5.44864C14.749 5.60464 14.8937 5.77714 14.9755 5.94889C15.0227 6.06589 15.034 6.18739 15.0812 6.30814C15.187 6.60139 15.2882 6.92914 15.4292 7.20289C15.5035 7.34389 15.5815 7.49164 15.6752 7.61689C15.73 7.69114 15.8237 7.72264 15.8432 7.84339C15.7495 7.97989 15.742 8.17939 15.691 8.34364C15.4487 9.10114 15.5425 10.0349 15.8822 10.5936C15.9917 10.7616 16.2452 11.1291 16.5857 10.9881C16.8865 10.8674 16.8205 10.4879 16.906 10.1519C16.9255 10.0701 16.9135 10.0191 16.9532 9.96439V9.98014C17.0507 10.1676 17.1445 10.3476 17.2307 10.5351C17.434 10.8636 17.797 11.2034 18.0977 11.4299C18.2582 11.5506 18.3827 11.7584 18.5822 11.8319V11.8124H18.5665C18.5237 11.7539 18.469 11.7261 18.4142 11.6796C18.2876 11.5542 18.17 11.4198 18.0625 11.2776C17.785 10.9026 17.5352 10.4886 17.3162 10.0626C17.2108 9.85211 17.1145 9.63716 17.0275 9.41839C16.9885 9.34039 16.9885 9.21889 16.9217 9.17989C16.8205 9.32464 16.672 9.44914 16.6015 9.63289C16.4725 9.91789 16.4605 10.2734 16.4102 10.6409C16.387 10.6484 16.3982 10.6409 16.387 10.6566C16.1725 10.6019 16.0982 10.3829 16.0195 10.1954C15.8162 9.71914 15.7847 8.95714 15.9572 8.41039C16.0045 8.26939 16.2032 7.82839 16.1252 7.69564C16.0825 7.56664 15.9497 7.49239 15.8792 7.39114C15.7892 7.26589 15.6992 7.10614 15.637 6.96514C15.4765 6.59014 15.3985 6.17614 15.223 5.80114C15.145 5.62939 15.004 5.44939 14.8907 5.28964C14.7617 5.10964 14.6215 4.98139 14.5232 4.76989C14.488 4.69564 14.4415 4.57489 14.4962 4.49614C14.5082 4.44139 14.5352 4.42189 14.59 4.40614C14.6762 4.33189 14.926 4.42564 15.0122 4.46839C15.2582 4.56589 15.4652 4.65964 15.6722 4.80064C15.766 4.86739 15.8672 4.99189 15.9887 5.02714H16.1297C16.3442 5.07439 16.5827 5.03914 16.7822 5.10139C17.1377 5.21464 17.458 5.37889 17.7467 5.55814C18.6298 6.12491 19.348 6.91443 19.8287 7.84714C19.9105 7.99939 19.9457 8.14039 20.02 8.30014C20.1565 8.63239 20.3327 8.96389 20.473 9.28039C20.6132 9.59689 20.7467 9.91714 20.9492 10.1789C21.0505 10.3199 21.4495 10.3934 21.6325 10.4639C21.7652 10.5261 21.9722 10.5809 22.0892 10.6514C22.3195 10.7924 22.546 10.9521 22.7612 11.1081C22.8707 11.1824 23.203 11.3504 23.2225 11.4831L23.2232 11.4846Z" fill="#F3F3F3"/>
</g>
<defs>
<clipPath id="clip0_496_2386">
<rect width="24" height="24" fill="white"/>
</clipPath>
</defs>
</svg>
