<svg width="24" height="24" viewBox="0 0 24 24" fill="none" xmlns="http://www.w3.org/2000/svg">
<path fill-rule="evenodd" clip-rule="evenodd" d="M5 1C3.93913 1 2.92172 1.42143 2.17157 2.17157C1.42143 2.92172 1 3.93913 1 5V19C1 20.0609 1.42143 21.0783 2.17157 21.8284C2.92172 22.5786 3.93913 23 5 23H19C20.0609 23 21.0783 22.5786 21.8284 21.8284C22.5786 21.0783 23 20.0609 23 19V5C23 3.93913 22.5786 2.92172 21.8284 2.17157C21.0783 1.42143 20.0609 1 19 1H5ZM17.57 6.5H19.57V16.29C19.005 16.486 17.616 16.88 16.582 16.88C15.289 16.88 13 16.215 13 13.114C13 10.427 15.237 9.414 17.57 9.414V6.5ZM17.57 11.124V15.124C16.74 15.124 15.07 14.911 15.07 13.124C15.07 11.337 16.74 11.124 17.57 11.124ZM6.5 7.88H4.5L7 12.38L4.5 16.88H6.5L8.5 13.38L10.5 16.88H12.5L10 12.38L12.5 7.88H10.5L8.5 11.38L6.5 7.88Z" fill="#F3F3F3"/>
</svg>
