<svg width="24" height="24" viewBox="0 0 24 24" fill="none" xmlns="http://www.w3.org/2000/svg">
<g clip-path="url(#clip0_496_2359)">
<path fill-rule="evenodd" clip-rule="evenodd" d="M21 0C21.7956 0 22.5587 0.316071 23.1213 0.87868C23.6839 1.44129 24 2.20435 24 3V21C24 21.7956 23.6839 22.5587 23.1213 23.1213C22.5587 23.6839 21.7956 24 21 24H3C2.20435 24 1.44129 23.6839 0.87868 23.1213C0.316071 22.5587 0 21.7956 0 21V0H21ZM6.885 11.247C5.977 11.247 5.2495 11.501 4.7025 12.009C4.1555 12.516 3.882 13.258 3.882 14.235V18.894C3.882 19.88 4.1455 20.622 4.6725 21.12C5.1995 21.618 5.9025 21.867 6.7815 21.867C7.3575 21.867 7.8655 21.755 8.3055 21.531C8.7555 21.306 9.107 20.969 9.36 20.52C9.615 20.07 9.742 19.513 9.741 18.849V18.5715H7.911V18.8355C7.911 19.2845 7.818 19.626 7.632 19.86C7.446 20.094 7.1825 20.2115 6.8415 20.2125C6.4695 20.2025 6.191 20.0705 6.006 19.8165C5.82 19.5615 5.727 19.1855 5.727 18.6885V14.529C5.727 13.982 5.81 13.5765 5.976 13.3125C6.153 13.0485 6.4415 12.9165 6.8415 12.9165C7.1625 12.9165 7.421 13.029 7.617 13.254C7.812 13.478 7.9095 13.8245 7.9095 14.2935V14.601H9.7545V14.28C9.7545 13.606 9.633 13.044 9.39 12.594C9.17123 12.162 8.82303 11.8091 8.394 11.5845C7.974 11.3595 7.471 11.247 6.885 11.247ZM13.206 11.232C12.62 11.232 12.117 11.354 11.697 11.598C11.2905 11.8385 10.9604 12.189 10.7445 12.609C10.5108 13.0716 10.3949 13.5848 10.407 14.103C10.407 14.856 10.5535 15.447 10.8465 15.876C11.1505 16.296 11.634 16.662 12.297 16.974L13.0005 17.2965C13.4405 17.4825 13.753 17.6975 13.938 17.9415C14.124 18.1855 14.217 18.503 14.217 18.894C14.217 19.372 14.134 19.7235 13.968 19.9485C13.811 20.1725 13.547 20.2845 13.176 20.2845C12.816 20.2845 12.5425 20.1625 12.3555 19.9185C12.1705 19.6755 12.068 19.2995 12.048 18.7905H10.305C10.325 19.7865 10.574 20.5485 11.052 21.0765C11.531 21.6035 12.2245 21.867 13.1325 21.867C14.0405 21.867 14.7485 21.608 15.2565 21.09C15.7645 20.572 16.0185 19.83 16.0185 18.864C16.0185 18.054 15.8525 17.4095 15.5205 16.9305C15.1875 16.4515 14.665 16.0565 13.953 15.7455L13.278 15.4515C12.888 15.2855 12.61 15.095 12.444 14.88C12.279 14.666 12.196 14.378 12.195 14.016C12.195 13.616 12.278 13.318 12.444 13.122C12.619 12.927 12.873 12.8295 13.206 12.8295C13.566 12.8295 13.82 12.9465 13.968 13.1805C14.124 13.4145 14.2115 13.766 14.2305 14.235H15.915C15.885 13.259 15.636 12.517 15.168 12.009C14.7 11.491 14.046 11.232 13.206 11.232ZM19.2915 11.232C18.7065 11.232 18.2035 11.354 17.7825 11.598C17.3766 11.8387 17.0469 12.1892 16.8315 12.609C16.5978 13.0716 16.4819 13.5848 16.494 14.103C16.494 14.856 16.6405 15.447 16.9335 15.876C17.2365 16.296 17.72 16.662 18.384 16.974L19.0875 17.2965C19.5255 17.4825 19.838 17.6975 20.025 17.9415C20.21 18.1855 20.3025 18.503 20.3025 18.894C20.3025 19.372 20.2195 19.7235 20.0535 19.9485C19.8975 20.1725 19.634 20.2845 19.263 20.2845C18.902 20.2855 18.6285 20.1635 18.4425 19.9185C18.2565 19.6755 18.154 19.2995 18.135 18.7905H16.392C16.412 19.7865 16.661 20.5485 17.139 21.0765C17.618 21.6035 18.311 21.867 19.218 21.867C20.127 21.867 20.8355 21.608 21.3435 21.09C21.8505 20.573 22.104 19.831 22.104 18.864C22.104 18.054 21.938 17.4095 21.606 16.9305C21.274 16.4515 20.7515 16.0565 20.0385 15.7455L19.365 15.4515C18.975 15.2855 18.697 15.095 18.531 14.88C18.365 14.666 18.282 14.378 18.282 14.016C18.282 13.616 18.3645 13.318 18.5295 13.122C18.7065 12.927 18.9605 12.8295 19.2915 12.8295C19.6525 12.8295 19.9065 12.9465 20.0535 13.1805C20.2095 13.4145 20.2975 13.766 20.3175 14.235H22.002C21.972 13.259 21.723 12.517 21.255 12.009C20.785 11.491 20.1305 11.232 19.2915 11.232Z" fill="#F3F3F3"/>
</g>
<defs>
<clipPath id="clip0_496_2359">
<rect width="24" height="24" fill="white"/>
</clipPath>
</defs>
</svg>
