<svg width="24" height="24" viewBox="0 0 24 24" fill="none" xmlns="http://www.w3.org/2000/svg">
<path d="M16.8114 4.65299L16.781 4.60555L16.7809 4.60574L16.7797 4.60649L16.7749 4.60949L16.7555 4.62149C16.638 4.69373 16.5192 4.76381 16.3991 4.83168C16.0824 5.01058 15.7582 5.17604 15.4275 5.32762C14.6407 5.68743 13.6457 6.03843 12.794 6.01968C12.3639 6.01012 12.0065 5.9743 11.6696 5.93887L11.6145 5.93305C11.2984 5.89968 10.9969 5.86799 10.6693 5.86105C9.97423 5.84643 9.16517 5.94412 7.83411 6.36862C6.49198 6.79649 5.6323 7.66705 5.01355 8.49637C4.77336 8.8183 4.56842 9.13518 4.38636 9.41718C4.33436 9.49793 4.28398 9.57549 4.23523 9.64987C4.01398 9.9868 3.82836 10.2442 3.64592 10.3766C3.2608 10.6558 2.46486 11.2498 1.76548 11.7735C1.4607 12.0018 1.15607 12.2303 0.851609 12.459L0.567734 12.6724L0.489922 12.7311L0.469672 12.7464L0.464422 12.7504L0.463109 12.7513L0.462734 12.7515L0.435547 12.7721L0.440984 12.8057L0.446234 12.8379L0.456734 12.9022L0.518797 12.8826L2.48005 12.258C2.40598 12.3371 2.30548 12.4474 2.17798 12.594C1.87536 12.9424 1.42067 13.4959 0.804922 14.3233L0.791609 14.3109L0.667109 14.1964L0.698422 14.3625L0.700672 14.3745L0.702734 14.3856L0.708922 14.3949L0.709109 14.3953L0.709672 14.3962L0.711922 14.3998L0.720922 14.4133C0.773712 14.4899 0.828864 14.5648 0.886297 14.6379C1.02818 14.8197 1.18383 14.9902 1.35186 15.1481C1.54423 15.327 1.77036 15.4991 2.0143 15.6081C2.25861 15.7172 2.52373 15.7644 2.79017 15.6877C2.88767 15.6592 2.99548 15.6146 3.1108 15.5571C3.51392 15.7785 4.03686 15.9943 4.61455 16.0547L4.75536 16.0695L4.66311 15.9621L4.66292 15.9619L4.66217 15.9609L4.6588 15.9572L4.64605 15.942C4.57172 15.853 4.49889 15.7627 4.42761 15.6712C4.26861 15.4673 4.11847 15.2566 3.97761 15.0397L4.1338 14.9383L4.9378 15.2338L5.02367 15.2653L5.01298 15.1744L4.93123 14.4776L5.66867 14.7486L5.75698 14.781L5.74367 14.6878L5.64823 14.0188C5.73898 13.9718 5.8293 13.9276 5.91917 13.8861L5.94373 13.875L5.95048 13.8493L6.79386 10.6592L10.1342 8.38068L9.92323 8.9113C9.57167 9.77568 9.06673 10.3087 8.65086 10.6254C8.48612 10.7515 8.30947 10.8612 8.12342 10.953C8.05875 10.9845 7.99247 11.0126 7.92486 11.0372L7.91436 11.0407L7.91342 11.0411L7.91192 11.0417L7.91136 11.0419L7.90967 11.0424L7.90798 11.043L7.35017 11.2545L7.33648 11.2594L7.32711 11.2704L7.26242 11.3464C7.0888 11.5496 6.95436 11.7069 6.84955 11.9818C6.73311 12.2871 6.65342 12.7356 6.58236 13.5585L6.57561 13.6371L6.65211 13.6177C6.9808 13.5352 7.28998 13.5167 7.56692 13.5913C8.29686 13.788 8.79036 14.3269 9.05192 14.8806C9.18261 15.1573 9.25442 15.4357 9.26923 15.6739C9.28423 15.9142 9.24073 16.1038 9.15261 16.2127C9.05717 16.3307 8.82767 16.5354 8.53048 16.7818H7.8868L7.88586 16.8371L7.87798 17.3034L7.87761 17.3038L7.85173 17.3239H7.1968L7.19586 17.3792L7.18873 17.8333L7.11073 17.892L7.06348 17.9276C6.79086 17.928 6.47942 17.8117 6.22967 17.6899C6.09122 17.6221 5.95686 17.5463 5.8273 17.4628L5.80348 17.4471L5.79748 17.4429L5.79636 17.4422L5.79617 17.442L5.7958 17.4418L5.70767 17.3812V17.4883C5.70767 17.7311 5.8078 18.033 5.90417 18.2691C5.95824 18.4002 6.0176 18.529 6.08211 18.6553L6.08248 18.6559L6.05942 18.6724L6.10855 18.7052L6.12448 18.7346L6.14117 18.7267L6.14567 18.7297L6.19761 18.7626C6.46602 18.9282 6.74708 19.0725 7.03817 19.194C7.29655 19.3007 7.58773 19.3961 7.87761 19.4404C8.16711 19.4846 8.45923 19.4781 8.71686 19.377C8.94036 19.2894 9.24898 19.1113 9.6133 18.8835C9.8638 18.7269 10.1426 18.5452 10.4407 18.3512C10.5775 18.2619 10.7179 18.1707 10.8619 18.0776C11.7778 17.4853 12.824 16.833 13.7925 16.4137L19.685 14.8614L19.7128 14.8541L19.7231 14.8273L20.5007 12.8128L20.5402 12.7102L20.4339 12.7384L16.0106 13.9037V12.21L21.2415 10.8319L21.2692 10.8246L21.2795 10.7977L22.0571 8.78324L22.0967 8.68068L21.9904 8.7088L16.0121 10.284V8.59049L22.7964 6.80287L22.8242 6.79555L22.8345 6.76874L23.5588 4.89299L23.5654 4.87574L23.5605 4.85793L23.529 4.74168L23.5144 4.68787L23.4604 4.70212L16.4379 6.55237C16.7623 6.04049 16.8744 5.58037 16.9029 5.23893C16.9183 5.0548 16.9091 4.90555 16.896 4.80168C16.8894 4.75036 16.8802 4.69942 16.8684 4.64905L16.8662 4.64043L16.8654 4.63799L16.8652 4.63724L16.8114 4.65299ZM16.8114 4.65299L16.781 4.60555L16.844 4.56543L16.8652 4.63724L16.8114 4.65299ZM16.7574 4.66893C16.7574 4.66868 16.7574 4.66868 16.7574 4.66893ZM12.1228 10.6303L13.4385 10.2834L13.02 11.3677L11.7043 11.7146L12.1228 10.6303ZM12.9397 11.8714L12.5212 12.9564L11.2055 13.3035L11.6242 12.2182L12.9397 11.8714ZM14.8292 11.4658L14.4107 12.5509L13.095 12.8979L13.5137 11.8127L14.8292 11.4658Z" fill="#F3F3F3"/>
<path d="M8.20219 19.5223C8.09081 19.5216 7.97963 19.5127 7.86956 19.4957C7.60969 19.4561 7.32281 19.3719 7.01719 19.2457C6.7232 19.123 6.43932 18.9773 6.16819 18.81L6.13744 18.7907L6.10069 18.8081L6.06619 18.744L5.96081 18.6738L6.01087 18.6382L5.988 18.5921C5.95444 18.5233 5.90363 18.4151 5.85281 18.2904C5.71969 17.9645 5.65219 17.6945 5.65219 17.4885V17.2743L5.83556 17.4005L5.85881 17.4159C5.98651 17.498 6.11886 17.5727 6.25519 17.6396C6.46763 17.7433 6.77512 17.8665 7.04569 17.8715L7.05994 17.8608L7.07775 17.8473L7.13381 17.8053L7.14225 17.268H7.82306L7.83206 16.7259H8.511C8.82487 16.4653 9.02625 16.2808 9.10969 16.1777C9.18956 16.0788 9.22744 15.8964 9.21394 15.6776C9.19894 15.4372 9.12375 15.1627 9.00187 14.9049C8.86714 14.6183 8.67904 14.3599 8.44763 14.1437C8.19456 13.9071 7.88734 13.7361 7.55288 13.6458C7.29956 13.5776 7.00969 13.5864 6.66638 13.6725L6.51337 13.7111L6.52706 13.5538C6.59719 12.7436 6.67556 12.2823 6.79781 11.9619C6.906 11.678 7.04475 11.5157 7.22044 11.31L7.23712 11.2903L7.28475 11.2342L7.30369 11.2119L7.33069 11.2016L7.89206 10.9888L7.89788 10.9869L7.90706 10.9839C7.97253 10.9599 8.03674 10.9326 8.09944 10.9022C8.28229 10.8123 8.45577 10.7045 8.61731 10.5804C8.8601 10.3946 9.07862 10.179 9.26775 9.93878C9.50813 9.63484 9.71006 9.28553 9.86775 8.90021V8.8989L9.87225 8.88915L10.0147 8.53065L6.84319 10.6938L6.00525 13.8637L5.99175 13.9151L5.94337 13.9372C5.86894 13.9715 5.79244 14.0087 5.71031 14.0505L5.82694 14.8661L4.99856 14.5618L5.091 15.3493L4.1415 15.0003L4.056 15.0558C4.18697 15.2548 4.32596 15.4484 4.47263 15.6362C4.54538 15.7297 4.60462 15.8027 4.64156 15.8473L4.68975 15.9052L4.70344 15.9213L4.70475 15.923L4.71975 15.9377V15.9407L4.89094 16.1398L4.60931 16.1102C4.12013 16.059 3.61594 15.894 3.11006 15.6198C3.01397 15.6679 2.91407 15.708 2.81138 15.7397L2.80631 15.7412L2.80444 15.7417L2.79881 15.7434C2.54663 15.8139 2.27531 15.7856 1.99181 15.659C1.7715 15.5606 1.5435 15.4025 1.314 15.189C1.09045 14.9782 0.888165 14.7459 0.710062 14.4956L0.69375 14.4723L0.692625 14.4731L0.662813 14.4273L0.653063 14.4144V14.4123L0.6495 14.4071L0.643312 14.3732L0.58125 14.0403L0.797813 14.2395C1.41788 13.4087 1.86694 12.867 2.13619 12.557C2.19169 12.4932 2.24513 12.4327 2.2965 12.3755L0.53625 12.936L0.411938 12.9753L0.375 12.7475L0.456562 12.6862L0.49275 12.659L0.640875 12.5477L0.818625 12.4142C1.03331 12.2529 1.36612 12.0032 1.7325 11.7287C2.36981 11.2513 3.21356 10.6215 3.61369 10.3312C3.78469 10.2073 3.96731 9.95697 4.18894 9.61928C4.2375 9.54522 4.28794 9.46721 4.33987 9.38696C4.52175 9.10553 4.72781 8.78678 4.96913 8.46315C5.33869 7.96778 5.71444 7.56728 6.11775 7.23859C6.62136 6.82671 7.19813 6.51349 7.81781 6.31534C8.99325 5.94034 9.84656 5.7879 10.6712 5.80515C11.0012 5.81209 11.3023 5.84378 11.6211 5.87753L11.6762 5.88334C12.0431 5.92197 12.3806 5.95459 12.7959 5.96378C13.1792 5.97221 13.6249 5.90434 14.1202 5.76184C14.52 5.6469 14.9522 5.48359 15.4048 5.27678C15.7339 5.12563 16.0566 4.96093 16.3721 4.78309C16.4962 4.71309 16.6189 4.64058 16.74 4.56559L16.7535 4.55697L16.8773 4.47803L16.9356 4.67528L16.9327 4.67603C16.9382 4.70228 16.9457 4.74278 16.9523 4.7949C16.9701 4.93609 16.9725 5.08721 16.9594 5.24378C16.9252 5.65459 16.7906 6.0639 16.5587 6.46271L23.5545 4.61959L23.625 4.87872L23.6119 4.91303L22.8669 6.84259L22.8113 6.85721L16.0687 8.63378V10.211L22.1891 8.59815L22.11 8.80346L21.3118 10.8716L21.2561 10.8862L16.0671 12.2535V13.83L20.4199 12.6834L20.6327 12.6273L20.5536 12.8327L19.7554 14.901L19.6997 14.9156L13.8114 16.4668C12.8646 16.8772 11.8493 17.5061 10.893 18.1247C10.7558 18.2133 10.6211 18.3011 10.4908 18.386L10.4676 18.4012C10.1722 18.5934 9.89325 18.7751 9.64369 18.9311C9.21956 19.1964 8.94019 19.35 8.73788 19.4293C8.57963 19.4912 8.40037 19.5223 8.20219 19.5223ZM6.177 18.6825L6.22781 18.7145C6.49371 18.8783 6.77199 19.0212 7.06012 19.1417C7.3575 19.2645 7.63538 19.3462 7.88644 19.3845C8.20031 19.4323 8.47294 19.412 8.69662 19.3243C8.89219 19.2476 9.16575 19.0968 9.58387 18.8355C9.83269 18.6798 10.1111 18.4985 10.4061 18.3065L10.4293 18.2913C10.5633 18.2039 10.6975 18.1167 10.8319 18.0298C11.7936 17.4078 12.8153 16.7752 13.7708 16.3614L13.7747 16.3597L13.7788 16.3586L19.6714 14.8063L20.4487 12.7918L15.9549 13.9757V12.1665L21.2278 10.7773L22.0054 8.76278L15.9562 10.3569V8.54696L22.7826 6.74828L23.5069 4.87253L23.4754 4.75646L16.3144 6.64309L16.3911 6.52215C16.6579 6.10121 16.8114 5.6679 16.8474 5.23422C16.8628 5.04878 16.8523 4.90046 16.8407 4.80878C16.8364 4.77498 16.831 4.74133 16.8244 4.7079L16.7869 4.71896L16.764 4.68334L16.7636 4.68278L16.7556 4.68784L16.7492 4.72459L16.7166 4.71972L16.7141 4.71315L16.7098 4.71578C16.6215 4.76921 16.5264 4.82471 16.4271 4.88078C16.1089 5.06035 15.7834 5.22656 15.4513 5.37896C14.9936 5.58821 14.5562 5.7534 14.151 5.86984C13.6448 6.01534 13.1878 6.08471 12.7931 6.07609C12.3735 6.0669 12.0336 6.0339 11.6642 5.99509L11.6091 5.98928C11.2928 5.9559 10.9939 5.9244 10.6686 5.91765C9.85706 5.90059 9.01462 6.05153 7.85175 6.42259C7.239 6.61797 6.69488 6.91346 6.18863 7.32596C5.79263 7.64865 5.42306 8.04259 5.05913 8.53046C4.81988 8.85109 4.61494 9.16815 4.43419 9.44809C4.38225 9.52834 4.33162 9.60671 4.28287 9.68096C4.04794 10.0389 3.86494 10.2879 3.6795 10.4223C3.27994 10.712 2.43675 11.3417 1.79981 11.8187C1.49508 12.0469 1.19052 12.2754 0.886125 12.5042L0.708563 12.6377L0.560438 12.749L0.524437 12.776L0.497812 12.7959L0.496687 12.7944L0.502312 12.8289L2.66925 12.1389L2.5215 12.2964C2.41926 12.406 2.31906 12.5176 2.22094 12.6309C1.94738 12.9457 1.48762 13.5005 0.8505 14.3568L0.813375 14.4067L0.779063 14.3754V14.3981L0.801937 14.4307C0.841687 14.4868 0.88475 14.5443 0.931125 14.6032C1.03238 14.7322 1.19437 14.9242 1.39069 15.107C1.61119 15.3122 1.82888 15.4635 2.03775 15.5568C2.29706 15.6727 2.54344 15.699 2.77031 15.6352L2.77744 15.6317H2.78269C2.88717 15.5986 2.98871 15.5569 3.08625 15.507L3.1125 15.4938L3.13838 15.5081C3.63488 15.7807 4.12912 15.9455 4.60744 15.9977V15.983L4.6035 15.9783C4.52852 15.8889 4.45526 15.798 4.38375 15.7057C4.22344 15.5006 4.07229 15.2886 3.93075 15.0701L3.90038 15.023L3.94744 14.9927L4.10344 14.8912L4.12706 14.8758L4.95769 15.1811L4.86525 14.3934L5.68856 14.6958L5.58731 13.9873L5.62294 13.9689C5.72006 13.9188 5.8095 13.8752 5.89612 13.835L6.74475 10.6247L10.2542 8.23084L9.97931 8.92215V8.92384L9.97463 8.93378C9.81244 9.3324 9.60394 9.69428 9.35494 10.0089C9.16013 10.2567 8.93485 10.479 8.68444 10.6704C8.51692 10.799 8.33704 10.9107 8.14744 11.0038C8.08072 11.0361 8.01245 11.065 7.94287 11.0906L7.93144 11.0945L7.9275 11.0958L7.36987 11.3073L7.32206 11.3636L7.30519 11.3833C7.12987 11.5884 7.00331 11.7365 6.90206 12.0022C6.78394 12.3123 6.70744 12.7648 6.63825 13.5637C7.0005 13.4728 7.30912 13.4642 7.58137 13.5375C7.93338 13.6325 8.25675 13.8123 8.52319 14.0612C8.76517 14.2872 8.96187 14.5572 9.10275 14.8569C9.23063 15.1275 9.30956 15.4164 9.32531 15.6707C9.34088 15.9208 9.29513 16.1261 9.19631 16.2483C9.10556 16.3607 8.8995 16.5493 8.56631 16.8255L8.55075 16.8384H7.9425L7.93425 17.3283L7.91119 17.3505L7.90856 17.3518L7.90481 17.3546L7.88719 17.3683L7.87181 17.3803H7.25269L7.24519 17.8618L7.22344 17.8783C7.19719 17.8983 7.17106 17.9179 7.14506 17.9372L7.12725 17.9507L7.098 17.9726L7.083 17.984H7.06294C6.89906 17.984 6.61781 17.9417 6.20569 17.7405C6.06511 17.6718 5.92874 17.5949 5.79731 17.51L5.77275 17.4937L5.7645 17.4883C5.7645 17.6771 5.83106 17.9398 5.95688 18.2477C6.00883 18.3747 6.06613 18.4995 6.12863 18.6217L6.12975 18.6228L6.13369 18.6317L6.15037 18.6648L6.15206 18.666L6.15262 18.6671L6.17156 18.6789L6.177 18.6825ZM11.1139 13.3858L11.5824 12.1712L13.0322 11.789L12.5638 13.0035L11.1139 13.3858ZM11.6666 12.2653L11.298 13.221L12.4796 12.9093L12.8483 11.9538L11.6666 12.2653ZM13.0031 12.9802L13.4717 11.7656L14.9214 11.3833L14.4531 12.5977L13.0031 12.9802ZM13.5561 11.8597L13.1874 12.8154L14.3691 12.5038L14.7377 11.5483L13.5561 11.8597ZM11.6124 11.7971L12.081 10.5832L13.5308 10.2009L13.0622 11.4146L11.6124 11.7971ZM12.1652 10.6773L11.7966 11.6321L12.9782 11.3205L13.3466 10.3657L12.1652 10.6773Z" fill="#F3F3F3"/>
</svg>
